<svg width="47" height="47" viewBox="0 0 47 47" fill="none" xmlns="http://www.w3.org/2000/svg">
<path d="M23.8 4.70001C13.4177 4.70001 5 13.1177 5 23.5C5 32.3094 11.0661 39.6805 19.2441 41.7203C19.1564 41.4665 19.1 41.172 19.1 40.807V37.5937C18.337 37.5937 17.0586 37.5937 16.7375 37.5937C15.4512 37.5937 14.3076 37.0407 13.753 36.013C13.1373 34.8709 13.0307 33.124 11.5048 32.0556C11.052 31.6999 11.3967 31.2942 11.9184 31.349C12.8819 31.6216 13.6809 32.2827 14.4329 33.2635C15.1818 34.2458 15.5343 34.4682 16.9333 34.4682C17.6117 34.4682 18.6269 34.4291 19.5825 34.2787C20.0964 32.9736 20.9847 31.772 22.0704 31.2049C15.81 30.561 12.8224 27.4464 12.8224 23.218C12.8224 21.3975 13.5979 19.6366 14.9154 18.153C14.483 16.6803 13.9394 13.677 15.0815 12.5333C17.8984 12.5333 19.6013 14.3601 20.0102 14.8536C21.414 14.3726 22.9556 14.1 24.5755 14.1C26.1986 14.1 27.7464 14.3726 29.1533 14.8567C29.5575 14.3663 31.262 12.5333 34.0852 12.5333C35.232 13.6786 34.6821 16.6944 34.245 18.1639C35.5547 19.6444 36.3255 21.4007 36.3255 23.218C36.3255 27.4433 33.3426 30.5563 27.0916 31.2033C28.8118 32.101 30.0667 34.6233 30.0667 36.5237V40.807C30.0667 40.9699 30.0306 41.0874 30.0118 41.2268C37.3376 38.6591 42.6 31.7031 42.6 23.5C42.6 13.1177 34.1823 4.70001 23.8 4.70001Z" fill="#0A3871"/>
</svg>

