<svg width="48" height="47" viewBox="0 0 48 47" fill="none" xmlns="http://www.w3.org/2000/svg">
<path d="M34.288 6.9412H13.0944C9.81371 6.9412 7.15416 9.60076 7.15416 12.8815V34.075C7.15416 37.3557 9.81371 40.0153 13.0944 40.0153H34.288C37.5687 40.0153 40.2282 37.3557 40.2282 34.075V12.8815C40.2282 9.60076 37.5687 6.9412 34.288 6.9412Z" stroke="#0A3871" stroke-width="3"/>
<path d="M16.147 16.1889H18.6275V18.5389H16.147V16.1889ZM16.147 20.4755H18.6275V31.725H16.147V20.4755ZM21.3302 20.4755H23.6802V22.1292L23.7237 22.1727C24.1009 21.5489 24.5941 21.063 25.2034 20.7148C25.8126 20.3522 26.4872 20.1708 27.227 20.1708C28.46 20.1708 29.4319 20.49 30.1427 21.1282C30.8535 21.7665 31.2089 22.7239 31.2089 24.0005V31.725H28.7284V24.6532C28.6994 23.7684 28.5108 23.1301 28.1626 22.7384C27.8145 22.3323 27.2705 22.1292 26.5307 22.1292C26.11 22.1292 25.7329 22.2089 25.3992 22.3685C25.0656 22.5136 24.7827 22.7239 24.5506 22.9995C24.3185 23.2606 24.1372 23.5725 24.0066 23.9352C23.8761 24.2978 23.8108 24.6823 23.8108 25.0884V31.725H21.3302V20.4755Z" fill="#0A3871"/>
</svg>

